#N canvas 0 27 1366 672 12;
#X obj 405 38 tgl 15 0 empty empty empty 17 7 0 10 #fcfcfc #000000
#000000 0 1;
#N canvas 620 104 450 372 two_notes 0;
#X obj 37 37 inlet;
#X obj 37 60 metro 500;
#X obj 37 83 tgl 15 0 empty empty empty 17 7 0 10 #fcfcfc #000000 #000000
0 1;
#X obj 37 101 sel 0 1;
#X msg 37 124 55;
#X msg 71 124 67;
#X floatatom 98 154 5 0 0 0 - - - 0;
#X obj 98 176 outlet;
#X connect 0 0 1 0;
#X connect 1 0 2 0;
#X connect 2 0 3 0;
#X connect 3 0 4 0;
#X connect 3 1 5 0;
#X connect 4 0 6 0;
#X connect 5 0 6 0;
#X connect 6 0 7 0;
#X restore 405 63 pd two_notes;
#X obj 405 118 s notes;
#X obj 33 12 r notes;
#X obj 34 72 mtof;
#X obj 31 211 *~;
#X obj 31 239 dac~;
#X text 164 184 vol;
#X floatatom 405 91 5 0 0 0 - - - 0;
#X floatatom 33 40 5 0 0 0 - - - 0;
#X floatatom 124 185 5 0 0 0 - - - 0;
#X text 75 39 MIDI pitch;
#X msg 594 12 \; pd dsp 1;
#X msg 594 55 \; pd dsp 0;
#N canvas 0 27 1366 672 oscs 1;
#X obj 69 205 osc~;
#X obj 114 207 osc~;
#X floatatom 133 169 10 0 0 0 - - - 0;
#X obj 77 15 inlet;
#X obj 72 273 outlet~;
#X obj 241 212 osc~;
#X floatatom 271 175 10 0 0 0 - - - 0;
#X obj 363 208 osc~;
#X floatatom 394 177 10 0 0 0 - - - 0;
#X obj 514 201 osc~;
#X floatatom 545 170 10 0 0 0 - - - 0;
#X obj 241 131 1.1;
#X obj 119 128 * 1.11;
#X obj 363 127 * 1.111;
#X obj 514 138 * 1.1111;
#X connect 0 0 4 0;
#X connect 1 0 4 0;
#X connect 3 0 0 0;
#X connect 3 0 11 0;
#X connect 3 0 12 0;
#X connect 3 0 13 0;
#X connect 3 0 14 0;
#X connect 5 0 4 0;
#X connect 7 0 4 0;
#X connect 9 0 4 0;
#X connect 11 0 5 0;
#X connect 11 0 6 0;
#X connect 12 0 1 0;
#X connect 12 0 2 0;
#X connect 13 0 7 0;
#X connect 13 0 8 0;
#X connect 14 0 9 0;
#X connect 14 0 10 0;
#X restore 32 145 pd oscs;
#X floatatom 48 101 10 0 0 0 - - - 0;
#N canvas 0 27 1366 672 oscs 0;
#X obj 69 205 osc~;
#X obj 114 207 osc~;
#X floatatom 158 104 13 0 2 0 - - - 0;
#X floatatom 133 169 10 0 0 0 - - - 0;
#X obj 77 15 inlet;
#X obj 72 273 outlet~;
#X obj 241 131 * 1.011;
#X obj 241 212 osc~;
#X floatatom 292 108 13 0 2 0 - - - 0;
#X floatatom 271 175 10 0 0 0 - - - 0;
#X obj 363 127 * 1.011;
#X obj 363 208 osc~;
#X floatatom 414 104 13 0 2 0 - - - 0;
#X floatatom 394 177 10 0 0 0 - - - 0;
#X obj 514 138 * 1.011;
#X obj 514 201 osc~;
#X floatatom 561 103 13 0 2 0 - - - 0;
#X floatatom 545 170 10 0 0 0 - - - 0;
#X obj 116 129 * 1.0001;
#X connect 0 0 5 0;
#X connect 1 0 5 0;
#X connect 2 0 18 1;
#X connect 4 0 0 0;
#X connect 4 0 6 0;
#X connect 4 0 10 0;
#X connect 4 0 14 0;
#X connect 4 0 18 0;
#X connect 6 0 7 0;
#X connect 6 0 9 0;
#X connect 7 0 5 0;
#X connect 8 0 6 1;
#X connect 10 0 11 0;
#X connect 10 0 13 0;
#X connect 11 0 5 0;
#X connect 12 0 10 1;
#X connect 14 0 15 0;
#X connect 14 0 17 0;
#X connect 15 0 5 0;
#X connect 16 0 14 1;
#X connect 18 0 1 0;
#X connect 18 0 3 0;
#X restore 138 144 pd oscs;
#N canvas 0 27 1366 672 oscs 0;
#X obj 69 205 osc~;
#X obj 114 207 osc~;
#X floatatom 158 104 13 0 2 0 - - - 0;
#X floatatom 133 169 10 0 0 0 - - - 0;
#X obj 77 15 inlet;
#X obj 72 273 outlet~;
#X obj 241 131 * 1.011;
#X obj 241 212 osc~;
#X floatatom 292 108 13 0 2 0 - - - 0;
#X floatatom 271 175 10 0 0 0 - - - 0;
#X obj 363 127 * 1.011;
#X obj 363 208 osc~;
#X floatatom 414 104 13 0 2 0 - - - 0;
#X floatatom 394 177 10 0 0 0 - - - 0;
#X obj 514 138 * 1.011;
#X obj 514 201 osc~;
#X floatatom 561 103 13 0 2 0 - - - 0;
#X floatatom 545 170 10 0 0 0 - - - 0;
#X obj 116 129 * 1.0001;
#X connect 0 0 5 0;
#X connect 1 0 5 0;
#X connect 2 0 18 1;
#X connect 4 0 0 0;
#X connect 4 0 6 0;
#X connect 4 0 10 0;
#X connect 4 0 14 0;
#X connect 4 0 18 0;
#X connect 6 0 7 0;
#X connect 6 0 9 0;
#X connect 7 0 5 0;
#X connect 8 0 6 1;
#X connect 10 0 11 0;
#X connect 10 0 13 0;
#X connect 11 0 5 0;
#X connect 12 0 10 1;
#X connect 14 0 15 0;
#X connect 14 0 17 0;
#X connect 15 0 5 0;
#X connect 16 0 14 1;
#X connect 18 0 1 0;
#X connect 18 0 3 0;
#X restore 209 144 pd oscs;
#N canvas 0 27 1366 672 oscs 0;
#X obj 69 205 osc~;
#X obj 114 207 osc~;
#X floatatom 158 104 13 0 2 0 - - - 0;
#X floatatom 133 169 10 0 0 0 - - - 0;
#X obj 77 15 inlet;
#X obj 72 273 outlet~;
#X obj 241 131 * 1.011;
#X obj 241 212 osc~;
#X floatatom 292 108 13 0 2 0 - - - 0;
#X floatatom 271 175 10 0 0 0 - - - 0;
#X obj 363 127 * 1.011;
#X obj 363 208 osc~;
#X floatatom 414 104 13 0 2 0 - - - 0;
#X floatatom 394 177 10 0 0 0 - - - 0;
#X obj 514 138 * 1.011;
#X obj 514 201 osc~;
#X floatatom 561 103 13 0 2 0 - - - 0;
#X floatatom 545 170 10 0 0 0 - - - 0;
#X obj 116 129 * 1.0001;
#X connect 0 0 5 0;
#X connect 1 0 5 0;
#X connect 2 0 18 1;
#X connect 4 0 0 0;
#X connect 4 0 6 0;
#X connect 4 0 10 0;
#X connect 4 0 14 0;
#X connect 4 0 18 0;
#X connect 6 0 7 0;
#X connect 6 0 9 0;
#X connect 7 0 5 0;
#X connect 8 0 6 1;
#X connect 10 0 11 0;
#X connect 10 0 13 0;
#X connect 11 0 5 0;
#X connect 12 0 10 1;
#X connect 14 0 15 0;
#X connect 14 0 17 0;
#X connect 15 0 5 0;
#X connect 16 0 14 1;
#X connect 18 0 1 0;
#X connect 18 0 3 0;
#X restore 282 144 pd oscs;
#X connect 0 0 1 0;
#X connect 1 0 8 0;
#X connect 3 0 9 0;
#X connect 4 0 15 0;
#X connect 4 0 14 0;
#X connect 5 0 6 0;
#X connect 5 0 6 1;
#X connect 8 0 2 0;
#X connect 9 0 4 0;
#X connect 10 0 5 1;
#X connect 14 0 5 0;
