#N canvas 0 27 1366 672 12;
#X obj 238 48 tgl 15 0 empty empty empty 17 7 0 10 #fcfcfc #000000
#000000 0 1;
#N canvas 620 104 450 372 two_notes 0;
#X obj 37 37 inlet;
#X obj 37 58 metro 500;
#X obj 36 81 tgl 15 0 empty empty empty 17 7 0 10 #fcfcfc #000000 #000000
0 1;
#X obj 37 100 sel 0 1;
#X msg 38 122 55;
#X msg 69 122 67;
#X floatatom 98 154 5 0 0 0 - - - 0;
#X obj 94 178 outlet;
#X connect 0 0 1 0;
#X connect 1 0 2 0;
#X connect 2 0 3 0;
#X connect 3 0 4 0;
#X connect 3 1 5 0;
#X connect 4 0 6 0;
#X connect 5 0 6 0;
#X connect 6 0 7 0;
#X restore 238 71 pd two_notes;
#X obj 238 126 s notes;
#X obj 47 44 r notes;
#X obj 47 99 mtof;
#X obj 47 171 *~;
#X obj 49 216 dac~;
#X text 134 145 vol;
#X floatatom 238 99 5 0 0 0 - - - 0;
#X floatatom 47 72 5 0 0 0 - - - 0;
#X obj 47 127 osc~;
#X floatatom 92 145 5 0 0 0 - - - 0;
#X text 85 72 MIDI pitch;
#X msg 394 44 \; pd dsp 1;
#X msg 394 89 \; pd dsp 0;
#X connect 0 0 1 0;
#X connect 1 0 8 0;
#X connect 3 0 9 0;
#X connect 4 0 10 0;
#X connect 5 0 6 0;
#X connect 5 0 6 1;
#X connect 8 0 2 0;
#X connect 9 0 4 0;
#X connect 10 0 5 0;
#X connect 11 0 5 1;
