#N canvas 0 27 1366 672 12;
#X obj 489 20 tgl 15 0 empty empty empty 17 7 0 10 #fcfcfc #000000
#000000 0 1;
#N canvas 620 104 450 372 two_notes 0;
#X obj 37 37 inlet;
#X obj 37 60 metro 500;
#X obj 37 83 tgl 15 0 empty empty empty 17 7 0 10 #fcfcfc #000000 #000000
0 1;
#X obj 37 101 sel 0 1;
#X msg 37 124 55;
#X msg 71 124 67;
#X floatatom 98 154 5 0 0 0 - - - 0;
#X obj 98 176 outlet;
#X connect 0 0 1 0;
#X connect 1 0 2 0;
#X connect 2 0 3 0;
#X connect 3 0 4 0;
#X connect 3 1 5 0;
#X connect 4 0 6 0;
#X connect 5 0 6 0;
#X connect 6 0 7 0;
#X restore 489 44 pd two_notes;
#X obj 489 99 s notes;
#X obj 33 12 r notes;
#X obj 37 114 mtof;
#X obj 38 279 *~;
#X obj 33 308 dac~;
#X text 135 255 vol;
#X floatatom 489 72 5 0 0 0 - - - 0;
#X floatatom 49 42 5 0 0 0 - - - 0;
#X floatatom 85 255 7 0 0 0 - - - 0;
#X text 88 42 MIDI pitch;
#X msg 593 12 \; pd dsp 1;
#X msg 594 55 \; pd dsp 0;
#N canvas 0 27 1366 672 oscs 0;
#X obj 69 205 osc~;
#X obj 114 207 osc~;
#X floatatom 133 169 10 0 0 0 - - - 0;
#X obj 77 15 inlet;
#X obj 72 273 outlet~;
#X obj 241 212 osc~;
#X floatatom 271 175 10 0 0 0 - - - 0;
#X obj 363 208 osc~;
#X floatatom 394 177 10 0 0 0 - - - 0;
#X obj 514 201 osc~;
#X floatatom 545 170 10 0 0 0 - - - 0;
#X obj 241 131 1.1;
#X obj 119 128 * 1.11;
#X obj 363 127 * 1.111;
#X obj 514 138 * 1.1111;
#X connect 0 0 4 0;
#X connect 1 0 4 0;
#X connect 3 0 0 0;
#X connect 3 0 11 0;
#X connect 3 0 12 0;
#X connect 3 0 13 0;
#X connect 3 0 14 0;
#X connect 5 0 4 0;
#X connect 7 0 4 0;
#X connect 9 0 4 0;
#X connect 11 0 5 0;
#X connect 11 0 6 0;
#X connect 12 0 1 0;
#X connect 12 0 2 0;
#X connect 13 0 7 0;
#X connect 13 0 8 0;
#X connect 14 0 9 0;
#X connect 14 0 10 0;
#X restore 200 12 pd oscs;
#X floatatom 53 145 9 0 0 0 - - - 0;
#X obj 37 248 *~;
#X obj 154 166 line~;
#X obj 162 91 bng 15 250 50 0 empty empty empty 17 7 0 10 #fcfcfc #000000
#000000;
#X obj 204 117 del 100;
#X obj 39 175 osc~;
#X obj 37 66 t f b, f 18;
#X obj 204 141 pack 0 500;
#X floatatom 288 100 8 0 0 0 - - - 0;
#X obj 154 190 *~;
#X obj 154 214 *~;
#X text 191 200 square the output;
#X text 349 100 decay;
#X text 93 121 attack->;
#X msg 158 120 1 5;
#X obj 173 249 vsl 15 32 0 1 0 0 empty empty empty 0 -9 0 10 #fcfcfc
#000000 #000000 0 1;
#X connect 0 0 1 0;
#X connect 1 0 8 0;
#X connect 3 0 9 0;
#X connect 4 0 15 0;
#X connect 5 0 6 0;
#X connect 5 0 6 1;
#X connect 8 0 2 0;
#X connect 9 0 21 0;
#X connect 10 0 5 1;
#X connect 15 0 20 0;
#X connect 16 0 5 0;
#X connect 17 0 24 0;
#X connect 17 0 24 1;
#X connect 18 0 19 0;
#X connect 18 0 29 0;
#X connect 19 0 22 0;
#X connect 20 0 16 0;
#X connect 21 0 4 0;
#X connect 21 1 18 0;
#X connect 22 0 17 0;
#X connect 23 0 22 1;
#X connect 24 0 25 0;
#X connect 24 0 25 1;
#X connect 25 0 16 1;
#X connect 29 0 17 0;
#X connect 30 0 5 1;
