#N canvas 0 27 1366 672 12;
#X obj 437 32 tgl 15 0 empty empty empty 17 7 0 10 #fcfcfc #000000
#000000 0 1;
#N canvas 620 104 450 372 two_notes 0;
#X obj 37 37 inlet;
#X obj 37 60 metro 500;
#X obj 37 83 tgl 15 0 empty empty empty 17 7 0 10 #fcfcfc #000000 #000000
0 1;
#X obj 37 101 sel 0 1;
#X msg 37 124 55;
#X msg 71 124 67;
#X floatatom 98 154 5 0 0 0 - - - 0;
#X obj 98 176 outlet;
#X connect 0 0 1 0;
#X connect 1 0 2 0;
#X connect 2 0 3 0;
#X connect 3 0 4 0;
#X connect 3 1 5 0;
#X connect 4 0 6 0;
#X connect 5 0 6 0;
#X connect 6 0 7 0;
#X restore 437 63 pd two_notes;
#X obj 33 5 r notes;
#X obj 108 273 *~;
#X obj 108 309 dac~;
#X floatatom 33 41 5 0 0 0 - - - 0;
#N canvas 0 27 1366 672 oscs 0;
#X obj 69 205 osc~;
#X obj 114 207 osc~;
#X floatatom 133 169 10 0 0 0 - - - 0;
#X obj 77 15 inlet;
#X obj 72 273 outlet~;
#X obj 241 212 osc~;
#X floatatom 271 175 10 0 0 0 - - - 0;
#X obj 363 208 osc~;
#X floatatom 394 177 10 0 0 0 - - - 0;
#X obj 514 201 osc~;
#X floatatom 545 170 10 0 0 0 - - - 0;
#X obj 241 131 1.1;
#X obj 119 128 * 1.11;
#X obj 363 127 * 1.111;
#X obj 514 138 * 1.1111;
#X connect 0 0 4 0;
#X connect 1 0 4 0;
#X connect 3 0 0 0;
#X connect 3 0 11 0;
#X connect 3 0 12 0;
#X connect 3 0 13 0;
#X connect 3 0 14 0;
#X connect 5 0 4 0;
#X connect 7 0 4 0;
#X connect 9 0 4 0;
#X connect 11 0 5 0;
#X connect 11 0 6 0;
#X connect 12 0 1 0;
#X connect 12 0 2 0;
#X connect 13 0 7 0;
#X connect 13 0 8 0;
#X connect 14 0 9 0;
#X connect 14 0 10 0;
#X restore 435 186 pd oscs;
#N canvas 0 27 1366 672 synth 0;
#X obj 35 67 mtof;
#X floatatom 50 141 9 0 0 0 - - - 0;
#X obj 37 239 *~;
#X obj 154 163 line~;
#X obj 157 95 bng 15 250 50 0 empty empty empty 17 7 0 10 #fcfcfc #000000
#000000;
#X obj 204 114 del 100;
#X obj 39 175 osc~;
#X obj 204 138 pack 0 500;
#X floatatom 287 100 8 0 0 0 - - - 0;
#X obj 154 187 *~;
#X obj 154 211 *~;
#X text 191 197 square the output;
#X text 349 97 decay;
#X text 93 121 attack->;
#X msg 158 117 1 5;
#X obj 43 25 inlet;
#X obj 38 270 outlet~;
#X connect 0 0 1 0;
#X connect 0 0 4 0;
#X connect 1 0 6 0;
#X connect 2 0 16 0;
#X connect 3 0 9 0;
#X connect 3 0 9 1;
#X connect 4 0 5 0;
#X connect 4 0 14 0;
#X connect 5 0 7 0;
#X connect 6 0 2 0;
#X connect 7 0 3 0;
#X connect 8 0 7 1;
#X connect 9 0 10 0;
#X connect 9 0 10 1;
#X connect 10 0 2 1;
#X connect 14 0 3 0;
#X connect 15 0 0 0;
#X restore 435 222 pd synth;
#N canvas 0 27 1366 672 synth 0;
#X obj 35 67 mtof;
#X floatatom 50 141 9 0 0 0 - - - 0;
#X obj 37 239 *~;
#X obj 154 163 line~;
#X obj 157 95 bng 15 250 50 0 empty empty empty 17 7 0 10 #fcfcfc #000000
#000000;
#X obj 204 114 del 100;
#X obj 39 175 osc~;
#X obj 204 138 pack 0 500;
#X floatatom 287 100 8 0 0 0 - - - 0;
#X obj 154 187 *~;
#X obj 154 211 *~;
#X text 191 197 square the output;
#X text 349 97 decay;
#X text 93 121 attack->;
#X msg 158 117 1 5;
#X obj 43 25 inlet;
#X obj 38 270 outlet~;
#X connect 0 0 1 0;
#X connect 0 0 4 0;
#X connect 1 0 6 0;
#X connect 2 0 16 0;
#X connect 3 0 9 0;
#X connect 3 0 9 1;
#X connect 4 0 5 0;
#X connect 4 0 14 0;
#X connect 5 0 7 0;
#X connect 6 0 2 0;
#X connect 7 0 3 0;
#X connect 8 0 7 1;
#X connect 9 0 10 0;
#X connect 9 0 10 1;
#X connect 10 0 2 1;
#X connect 14 0 3 0;
#X connect 15 0 0 0;
#X restore 435 258 pd synth;
#X obj 325 8 tgl 15 0 empty empty empty 17 7 0 10 #fcfcfc #000000 #000000
0 1;
#X obj 399 152 s notes;
#X floatatom 398 115 5 0 0 0 - - - 0;
#N canvas 440 116 1024 486 some_notes 0;
#X obj 37 37 inlet;
#X obj 37 85 f 0;
#X obj 37 133 % 8;
#X obj 106 135 table pitches;
#X obj 37 229 tabread pitches;
#X obj 37 61 metro 170;
#X floatatom 37 253 5 0 0 0 - - - 0;
#X obj 37 109 + 1;
#X floatatom 37 206 5 0 0 0 - - - 0;
#X obj 37 276 outlet;
#X msg 106 167 \; pitches 0 60 67 62 58 63 70 72 65;
#X connect 0 0 5 0;
#X connect 1 0 7 0;
#X connect 2 0 1 1;
#X connect 2 0 8 0;
#X connect 2 0 10 0;
#X connect 4 0 6 0;
#X connect 5 0 1 0;
#X connect 6 0 9 0;
#X connect 7 0 2 0;
#X connect 8 0 4 0;
#X restore 325 39 pd some_notes;
#X obj 325 75 pipe 667;
#X obj 33 76 t f b, f 24;
#X obj 33 112 mtof;
#X obj 108 237 *~;
#X obj 33 147 phasor~;
#X obj 33 193 vcf~ 1, f 11;
#N canvas 765 176 487 410 c1_vol 0;
#X floatatom 31 134 4 0 0 0 - - - 0;
#X obj 55 84 vsl 15 32 0 1 0 0 empty empty empty 0 -9 0 10 #fcfcfc
#000000 #000000 0 1;
#X floatatom 26 36 5 0 0 0 - - - 0;
#X floatatom 73 51 5 0 0 0 - - - 0;
#X obj 26 13 ctlin 1;
#X obj 26 58 / 127;
#X obj 31 157 outlet~;
#X connect 0 0 6 0;
#X connect 1 0 0 0;
#X connect 2 0 5 0;
#X connect 4 0 2 0;
#X connect 4 1 3 0;
#X connect 5 0 1 0;
#X restore 197 239 pd c1_vol;
#N canvas 0 27 1366 672 c5c6_env 0;
#X obj 88 223 line~;
#X obj 48 55 bng 15 250 50 0 empty empty empty 17 7 0 10 #fcfcfc #000000
#000000;
#X obj 165 142 del 100;
#X obj 167 181 pack 0 500;
#X obj 88 247 *~;
#X obj 88 271 *~;
#X text 145 221 square the output;
#X obj 48 23 inlet;
#X obj 88 295 outlet~;
#X obj 55 181 pack 1 500;
#X floatatom 248 112 8 0 0 0 - - - 0;
#X floatatom 248 47 5 0 0 0 - - - 0;
#X floatatom 294 51 5 0 0 0 - - - 0;
#X obj 248 69 * 10;
#X obj 248 24 ctlin 6;
#X floatatom 146 88 8 0 0 0 - - - 0;
#X floatatom 146 45 5 0 0 0 - - - 0;
#X floatatom 192 49 5 0 0 0 - - - 0;
#X obj 146 22 ctlin 5;
#X text 253 90 decay ms;
#X text 149 66 attack ms;
#X connect 0 0 4 0;
#X connect 0 0 4 1;
#X connect 1 0 2 0;
#X connect 1 0 9 0;
#X connect 2 0 3 0;
#X connect 3 0 0 0;
#X connect 4 0 5 0;
#X connect 4 0 5 1;
#X connect 5 0 8 0;
#X connect 7 0 1 0;
#X connect 9 0 0 0;
#X connect 10 0 3 1;
#X connect 11 0 13 0;
#X connect 13 0 10 0;
#X connect 14 0 11 0;
#X connect 14 1 12 0;
#X connect 15 0 9 1;
#X connect 16 0 15 0;
#X connect 18 0 16 0;
#X connect 18 1 17 0;
#X restore 198 199 pd c5c6_env;
#N canvas 451 115 450 406 c2_lowpass 0;
#X text 24 78 cutoff Hz;
#X floatatom 21 98 8 0 0 0 - - - 0;
#X floatatom 21 36 5 0 0 0 - - - 0;
#X floatatom 67 40 5 0 0 0 - - - 0;
#X obj 21 58 * 50;
#X obj 21 12 ctlin 2;
#X obj 21 121 outlet~;
#X connect 1 0 6 0;
#X connect 2 0 4 0;
#X connect 4 0 1 0;
#X connect 5 0 2 0;
#X connect 5 1 3 0;
#X restore 99 133 pd c2_lowpass;
#X obj 325 197 tgl 15 0 empty empty empty 17 7 0 10 #fcfcfc #000000
#000000 0 1;
#X msg 325 224 \; pd dsp \$1;
#X connect 0 0 1 0;
#X connect 1 0 11 0;
#X connect 2 0 5 0;
#X connect 3 0 4 0;
#X connect 3 0 4 1;
#X connect 5 0 14 0;
#X connect 9 0 12 0;
#X connect 11 0 10 0;
#X connect 12 0 13 0;
#X connect 13 0 11 0;
#X connect 14 0 15 0;
#X connect 14 1 20 0;
#X connect 15 0 17 0;
#X connect 16 0 3 0;
#X connect 17 0 18 0;
#X connect 18 1 16 0;
#X connect 19 0 3 1;
#X connect 20 0 16 1;
#X connect 21 0 18 1;
#X connect 22 0 23 0;
