#N canvas 0 27 1366 672 12;
#X obj 398 38 tgl 15 0 empty empty empty 17 7 0 10 #fcfcfc #000000
#000000 0 1;
#N canvas 620 104 450 372 two_notes 0;
#X obj 37 37 inlet;
#X obj 37 60 metro 500;
#X obj 37 83 tgl 15 0 empty empty empty 17 7 0 10 #fcfcfc #000000 #000000
0 1;
#X obj 37 101 sel 0 1;
#X msg 37 124 55;
#X msg 71 124 67;
#X floatatom 98 154 5 0 0 0 - - - 0;
#X obj 98 176 outlet;
#X connect 0 0 1 0;
#X connect 1 0 2 0;
#X connect 2 0 3 0;
#X connect 3 0 4 0;
#X connect 3 1 5 0;
#X connect 4 0 6 0;
#X connect 5 0 6 0;
#X connect 6 0 7 0;
#X restore 398 73 pd two_notes;
#X obj 33 12 r notes;
#X obj 35 216 *~;
#X obj 35 256 dac~;
#X text 104 180 vol;
#X floatatom 33 52 5 0 0 0 - - - 0;
#X floatatom 54 181 7 0 0 0 - - - 0;
#X text 88 51 MIDI pitch;
#X msg 192 244 \; pd dsp 1;
#X msg 273 243 \; pd dsp 0;
#N canvas 0 27 1366 672 oscs 0;
#X obj 69 205 osc~;
#X obj 114 207 osc~;
#X floatatom 133 169 10 0 0 0 - - - 0;
#X obj 77 15 inlet;
#X obj 72 273 outlet~;
#X obj 241 212 osc~;
#X floatatom 271 175 10 0 0 0 - - - 0;
#X obj 363 208 osc~;
#X floatatom 394 177 10 0 0 0 - - - 0;
#X obj 514 201 osc~;
#X floatatom 545 170 10 0 0 0 - - - 0;
#X obj 241 131 1.1;
#X obj 119 128 * 1.11;
#X obj 363 127 * 1.111;
#X obj 514 138 * 1.1111;
#X connect 0 0 4 0;
#X connect 1 0 4 0;
#X connect 3 0 0 0;
#X connect 3 0 11 0;
#X connect 3 0 12 0;
#X connect 3 0 13 0;
#X connect 3 0 14 0;
#X connect 5 0 4 0;
#X connect 7 0 4 0;
#X connect 9 0 4 0;
#X connect 11 0 5 0;
#X connect 11 0 6 0;
#X connect 12 0 1 0;
#X connect 12 0 2 0;
#X connect 13 0 7 0;
#X connect 13 0 8 0;
#X connect 14 0 9 0;
#X connect 14 0 10 0;
#X restore 200 12 pd oscs;
#X obj 146 164 vsl 15 32 0 1 0 0 empty empty empty 0 -9 0 10 #fcfcfc
#000000 #000000 0 1;
#N canvas 0 27 1366 672 synth 0;
#X obj 35 67 mtof;
#X floatatom 50 141 9 0 0 0 - - - 0;
#X obj 37 239 *~;
#X obj 154 163 line~;
#X obj 157 95 bng 15 250 50 0 empty empty empty 17 7 0 10 #fcfcfc #000000
#000000;
#X obj 204 114 del 100;
#X obj 39 175 osc~;
#X obj 204 138 pack 0 500;
#X floatatom 287 100 8 0 0 0 - - - 0;
#X obj 154 187 *~;
#X obj 154 211 *~;
#X text 191 197 square the output;
#X text 349 97 decay;
#X text 93 121 attack->;
#X msg 158 117 1 5;
#X obj 43 25 inlet;
#X obj 38 270 outlet~;
#X connect 0 0 1 0;
#X connect 0 0 4 0;
#X connect 1 0 6 0;
#X connect 2 0 16 0;
#X connect 3 0 9 0;
#X connect 3 0 9 1;
#X connect 4 0 5 0;
#X connect 4 0 14 0;
#X connect 5 0 7 0;
#X connect 6 0 2 0;
#X connect 7 0 3 0;
#X connect 8 0 7 1;
#X connect 9 0 10 0;
#X connect 9 0 10 1;
#X connect 10 0 2 1;
#X connect 14 0 3 0;
#X connect 15 0 0 0;
#X restore 200 52 pd synth;
#X obj 33 131 clone synth.cl 64;
#X msg 33 91 next \$1;
#N canvas 0 27 1366 672 synth 0;
#X obj 35 67 mtof;
#X floatatom 50 141 9 0 0 0 - - - 0;
#X obj 37 239 *~;
#X obj 154 163 line~;
#X obj 157 95 bng 15 250 50 0 empty empty empty 17 7 0 10 #fcfcfc #000000
#000000;
#X obj 204 114 del 100;
#X obj 39 175 osc~;
#X obj 204 138 pack 0 500;
#X floatatom 287 100 8 0 0 0 - - - 0;
#X obj 154 187 *~;
#X obj 154 211 *~;
#X text 191 197 square the output;
#X text 349 97 decay;
#X text 93 121 attack->;
#X msg 158 117 1 5;
#X obj 43 25 inlet;
#X obj 38 270 outlet~;
#X connect 0 0 1 0;
#X connect 0 0 4 0;
#X connect 1 0 6 0;
#X connect 2 0 16 0;
#X connect 3 0 9 0;
#X connect 3 0 9 1;
#X connect 4 0 5 0;
#X connect 4 0 14 0;
#X connect 5 0 7 0;
#X connect 6 0 2 0;
#X connect 7 0 3 0;
#X connect 8 0 7 1;
#X connect 9 0 10 0;
#X connect 9 0 10 1;
#X connect 10 0 2 1;
#X connect 14 0 3 0;
#X connect 15 0 0 0;
#X restore 200 92 pd synth;
#X obj 285 12 tgl 15 0 empty empty empty 17 7 0 10 #fcfcfc #000000
#000000 0 1;
#X obj 285 150 s notes;
#X floatatom 285 111 5 0 0 0 - - - 0;
#N canvas 0 27 1366 672 some_notes 1;
#X obj 37 37 inlet;
#X obj 37 85 f 0;
#X obj 37 133 % 8;
#X obj 176 181 table pitches;
#X msg 176 205 \; pitches 0 60 67 62 58 63 70 72 65;
#X obj 37 220 tabread pitches;
#X obj 37 61 metro 170;
#X floatatom 37 244 5 0 0 0 - - - 0;
#X obj 37 109 + 1;
#X floatatom 37 159 5 0 0 0 - - - 0;
#X obj 37 267 outlet;
#X connect 0 0 6 0;
#X connect 1 0 8 0;
#X connect 2 0 1 1;
#X connect 2 0 9 0;
#X connect 5 0 7 0;
#X connect 6 0 1 0;
#X connect 7 0 10 0;
#X connect 8 0 2 0;
#X connect 9 0 5 0;
#X connect 9 0 4 0;
#X restore 285 47 pd some_notes;
#X obj 299 74 pipe 667;
#X connect 0 0 1 0;
#X connect 1 0 19 0;
#X connect 2 0 6 0;
#X connect 3 0 4 0;
#X connect 3 0 4 1;
#X connect 6 0 15 0;
#X connect 7 0 3 1;
#X connect 12 0 3 1;
#X connect 14 0 3 0;
#X connect 15 0 14 0;
#X connect 17 0 20 0;
#X connect 19 0 18 0;
#X connect 20 0 21 0;
#X connect 21 0 19 0;
