#N canvas 0 27 1366 672 12;
#X obj 8 8 cnv 25 360 255 empty empty empty 20 12 0 14 #e0e0e0 #404040
0;
#X text 336 112 vol;
#X floatatom 238 146 5 0 0 0 - - - 0;
#X obj 340 134 vsl 15 32 0 1 0 0 empty empty empty 0 -9 0 10 #fcfcfc
#000000 #000000 0 0;
#N canvas 0 27 1366 672 recv_st1_st8 0;
#X obj 74 73 r st1;
#X obj 74 104 bng 15 250 50 0 empty empty empty 17 7 0 10 #fcfcfc #000000
#000000;
#X obj 74 129 spigot;
#X obj 74 154 bng 15 250 50 0 empty empty empty 17 7 0 10 #fcfcfc #000000
#000000;
#X obj 129 104 bng 15 250 50 0 empty empty empty 17 7 0 10 #fcfcfc
#000000 #000000;
#X obj 129 129 spigot;
#X obj 129 154 bng 15 250 50 0 empty empty empty 17 7 0 10 #fcfcfc
#000000 #000000;
#X obj 185 104 bng 15 250 50 0 empty empty empty 17 7 0 10 #fcfcfc
#000000 #000000;
#X obj 185 129 spigot;
#X obj 185 154 bng 15 250 50 0 empty empty empty 17 7 0 10 #fcfcfc
#000000 #000000;
#X obj 240 104 bng 15 250 50 0 empty empty empty 17 7 0 10 #fcfcfc
#000000 #000000;
#X obj 240 129 spigot;
#X obj 240 154 bng 15 250 50 0 empty empty empty 17 7 0 10 #fcfcfc
#000000 #000000;
#X obj 295 104 bng 15 250 50 0 empty empty empty 17 7 0 10 #fcfcfc
#000000 #000000;
#X obj 295 129 spigot;
#X obj 295 154 bng 15 250 50 0 empty empty empty 17 7 0 10 #fcfcfc
#000000 #000000;
#X obj 350 104 bng 15 250 50 0 empty empty empty 17 7 0 10 #fcfcfc
#000000 #000000;
#X obj 350 129 spigot;
#X obj 349 154 bng 15 250 50 0 empty empty empty 17 7 0 10 #fcfcfc
#000000 #000000;
#X obj 406 104 bng 15 250 50 0 empty empty empty 17 7 0 10 #fcfcfc
#000000 #000000;
#X obj 406 129 spigot;
#X obj 406 154 bng 15 250 50 0 empty empty empty 17 7 0 10 #fcfcfc
#000000 #000000;
#X obj 461 104 bng 15 250 50 0 empty empty empty 17 7 0 10 #fcfcfc
#000000 #000000;
#X obj 461 129 spigot;
#X obj 461 154 bng 15 250 50 0 empty empty empty 17 7 0 10 #fcfcfc
#000000 #000000;
#X obj 129 73 r st2;
#X obj 185 73 r st3;
#X obj 240 73 r st4;
#X obj 295 73 r st5;
#X obj 350 73 r st6;
#X obj 406 73 r st7;
#X obj 461 73 r st8;
#X obj 124 25 inlet;
#X obj 169 25 inlet;
#X obj 226 24 inlet;
#X obj 284 23 inlet;
#X obj 341 20 inlet;
#X obj 393 19 inlet;
#X obj 455 16 inlet;
#X obj 519 23 inlet;
#X obj 521 238 outlet;
#X obj 66 239 outlet;
#X obj 123 239 outlet;
#X obj 180 239 outlet;
#X obj 237 239 outlet;
#X obj 292 239 outlet;
#X obj 349 239 outlet;
#X obj 406 239 outlet;
#X obj 463 239 outlet;
#X obj 11 188 r st9;
#X obj 11 238 outlet;
#X obj 11 212 - 1;
#X connect 0 0 1 0;
#X connect 1 0 41 0;
#X connect 1 0 2 0;
#X connect 2 0 3 0;
#X connect 3 0 40 0;
#X connect 4 0 42 0;
#X connect 4 0 5 0;
#X connect 5 0 6 0;
#X connect 6 0 40 0;
#X connect 7 0 8 0;
#X connect 7 0 43 0;
#X connect 8 0 9 0;
#X connect 9 0 40 0;
#X connect 10 0 11 0;
#X connect 10 0 44 0;
#X connect 11 0 12 0;
#X connect 12 0 40 0;
#X connect 13 0 14 0;
#X connect 13 0 45 0;
#X connect 14 0 15 0;
#X connect 15 0 40 0;
#X connect 16 0 17 0;
#X connect 16 0 46 0;
#X connect 17 0 18 0;
#X connect 18 0 40 0;
#X connect 19 0 20 0;
#X connect 19 0 47 0;
#X connect 20 0 21 0;
#X connect 21 0 40 0;
#X connect 22 0 23 0;
#X connect 22 0 48 0;
#X connect 23 0 24 0;
#X connect 24 0 40 0;
#X connect 25 0 4 0;
#X connect 26 0 7 0;
#X connect 27 0 10 0;
#X connect 28 0 13 0;
#X connect 29 0 16 0;
#X connect 30 0 19 0;
#X connect 31 0 22 0;
#X connect 32 0 2 1;
#X connect 33 0 5 1;
#X connect 34 0 8 1;
#X connect 35 0 11 1;
#X connect 36 0 14 1;
#X connect 37 0 17 1;
#X connect 38 0 20 1;
#X connect 39 0 23 1;
#X connect 49 0 51 0;
#X connect 51 0 50 0;
#X restore 20 109 pd recv_st1_st8;
#X f 25;
#X obj 20 77 tgl 20 1 empty empty empty 17 7 0 10 #ffffff #000000 #000000
1 1;
#X obj 44 77 tgl 20 1 empty empty empty 17 7 0 10 #fcfcfc #000000 #000000
0 1;
#X obj 69 77 tgl 20 1 empty empty empty 17 7 0 10 #fcfcfc #000000 #000000
1 1;
#X obj 93 77 tgl 20 1 empty empty empty 17 7 0 10 #fcfcfc #000000 #000000
0 1;
#X obj 118 77 tgl 20 1 empty empty empty 17 7 0 10 #fcfcfc #000000
#000000 1 1;
#X obj 142 77 tgl 20 1 empty empty empty 17 7 0 10 #ffffff #000000
#000000 1 1;
#X obj 167 77 tgl 20 1 empty empty empty 17 7 0 10 #ffffff #000000
#000000 1 1;
#X obj 192 77 tgl 20 1 empty empty empty 17 7 0 10 #ffffff #000000
#000000 0 1;
#X obj 152 32 tgl 25 0 empty empty empty 17 7 0 10 #fcfcfc #000000
#000000 0 1;
#X text 148 14 reset;
#N canvas 0 0 450 300 poly_synth 0;
#X obj 148 120 *~;
#X obj 148 92 clone synth.cl 64;
#X msg 148 63 next \$1;
#X obj 134 158 outlet~;
#X obj 142 21 inlet;
#X obj 203 22 inlet;
#X connect 0 0 3 0;
#X connect 1 0 0 0;
#X connect 2 0 1 0;
#X connect 4 0 2 0;
#X connect 5 0 0 1;
#X restore 238 182 pd poly_synth;
#X obj 271 62 tgl 25 0 empty empty empty 17 7 0 10 #fcfcfc #000000
#000000 0 1;
#X text 269 41 play;
#N canvas 0 27 1366 672 send_st1_st8 0;
#X obj 176 170 metro;
#X obj 176 195 bng 15 250 50 0 empty empty empty 17 7 0 10 #fcfcfc
#000000 #000000;
#X obj 176 215 int 1;
#X obj 233 215 + 1;
#X obj 176 240 % 8;
#X obj 176 265 + 1;
#X floatatom 176 290 5 0 0 0 - - - 0;
#X obj 16 332 sel 1;
#X obj 16 357 bng 15 250 50 0 empty empty empty 17 7 0 10 #fcfcfc #000000
#000000;
#X obj 60 357 bng 15 250 50 0 empty empty empty 17 7 0 10 #fcfcfc #000000
#000000;
#X obj 104 357 bng 15 250 50 0 empty empty empty 17 7 0 10 #fcfcfc
#000000 #000000;
#X obj 148 357 bng 15 250 50 0 empty empty empty 17 7 0 10 #fcfcfc
#000000 #000000;
#X obj 192 357 bng 15 250 50 0 empty empty empty 17 7 0 10 #fcfcfc
#000000 #000000;
#X obj 236 357 bng 15 250 50 0 empty empty empty 17 7 0 10 #fcfcfc
#000000 #000000;
#X obj 280 357 bng 15 250 50 0 empty empty empty 17 7 0 10 #fcfcfc
#000000 #000000;
#X obj 324 357 bng 15 250 50 0 empty empty empty 17 7 0 10 #fcfcfc
#000000 #000000;
#X obj 60 332 sel 2;
#X obj 104 332 sel 3;
#X obj 148 332 sel 4;
#X obj 192 332 sel 5;
#X obj 236 332 sel 6;
#X obj 280 332 sel 7;
#X obj 324 332 sel 8;
#X obj 16 377 s st1;
#X obj 60 377 s st2;
#X obj 104 377 s st3;
#X obj 148 377 s st4;
#X obj 192 377 s st5;
#X obj 236 377 s st6;
#X obj 280 377 s st7;
#X obj 324 377 s st8;
#X obj 200 66 loadbang;
#X msg 198 101 500;
#X obj 110 85 loadbang;
#X text 180 5 play;
#X obj 176 25 inlet;
#X obj 277 25 inlet;
#X obj 87 24 inlet;
#X text 83 4 restart;
#X obj 398 299 s st9;
#X obj 277 51 t b f;
#X msg 277 75 60000;
#X obj 282 106 /;
#X floatatom 282 130 5 0 0 0 - - - 0;
#X text 276 5 bpm -> millis;
#X msg 101 114 0;
#X connect 0 0 1 0;
#X connect 1 0 2 0;
#X connect 2 0 3 0;
#X connect 2 0 4 0;
#X connect 3 0 2 1;
#X connect 4 0 5 0;
#X connect 5 0 6 0;
#X connect 6 0 16 0;
#X connect 6 0 22 0;
#X connect 6 0 21 0;
#X connect 6 0 20 0;
#X connect 6 0 19 0;
#X connect 6 0 18 0;
#X connect 6 0 17 0;
#X connect 6 0 7 0;
#X connect 6 0 39 0;
#X connect 7 0 8 0;
#X connect 8 0 23 0;
#X connect 9 0 24 0;
#X connect 10 0 25 0;
#X connect 11 0 26 0;
#X connect 12 0 27 0;
#X connect 13 0 28 0;
#X connect 14 0 29 0;
#X connect 15 0 30 0;
#X connect 16 0 9 0;
#X connect 17 0 10 0;
#X connect 18 0 11 0;
#X connect 19 0 12 0;
#X connect 20 0 13 0;
#X connect 21 0 14 0;
#X connect 22 0 15 0;
#X connect 31 0 32 0;
#X connect 32 0 0 1;
#X connect 33 0 45 0;
#X connect 35 0 0 0;
#X connect 36 0 40 0;
#X connect 37 0 45 0;
#X connect 40 0 41 0;
#X connect 40 1 42 1;
#X connect 41 0 42 0;
#X connect 42 0 43 0;
#X connect 43 0 0 1;
#X connect 45 0 2 0;
#X restore 220 109 pd send_st1_st8;
#X floatatom 322 78 5 60 240 0 - - - 0;
#X obj 21 188 tgl 25 0 empty empty empty 17 7 0 10 #fcfcfc #000000
#000000 0 1;
#X msg 21 218 \; pd dsp \$1;
#X obj 220 32 bng 25 250 50 0 empty empty empty 17 7 0 10 #fcfcfc #000000
#000000;
#X text 217 13 restart;
#X obj 238 235 dac~;
#X obj 20 143 hradio 20 1 0 8 empty empty empty 0 -8 0 10 #fcfcfc #000000
#000000 0;
#X obj 238 205 clip~ -0.9 0.9;
#X text 319 58 bpm;
#X connect 2 0 15 0;
#X connect 3 0 15 1;
#X connect 4 0 25 0;
#X connect 4 9 2 0;
#X connect 5 0 4 0;
#X connect 6 0 4 1;
#X connect 7 0 4 2;
#X connect 8 0 4 3;
#X connect 9 0 4 4;
#X connect 10 0 4 5;
#X connect 11 0 4 6;
#X connect 12 0 4 7;
#X connect 13 0 5 0;
#X connect 13 0 6 0;
#X connect 13 0 7 0;
#X connect 13 0 8 0;
#X connect 13 0 9 0;
#X connect 13 0 10 0;
#X connect 13 0 11 0;
#X connect 13 0 12 0;
#X connect 15 0 26 0;
#X connect 16 0 18 1;
#X connect 19 0 18 2;
#X connect 20 0 21 0;
#X connect 22 0 18 0;
#X connect 26 0 24 0;
#X connect 26 0 24 1;
