#N canvas 311 90 450 300 12;
#X obj 35 67 mtof;
#X floatatom 50 141 9 0 0 0 - - - 0;
#X obj 37 239 *~;
#X obj 154 163 line~;
#X obj 157 95 bng 15 250 50 0 empty empty empty 17 7 0 10 #fcfcfc #000000
#000000;
#X obj 204 114 del 100;
#X obj 39 175 osc~;
#X obj 204 138 pack 0 500;
#X floatatom 287 100 8 0 0 0 - - - 0;
#X obj 154 187 *~;
#X obj 154 211 *~;
#X text 191 197 square the output;
#X text 349 97 decay;
#X text 93 121 attack->;
#X msg 158 117 1 5;
#X obj 43 25 inlet;
#X obj 38 270 outlet~;
#X connect 0 0 1 0;
#X connect 0 0 4 0;
#X connect 1 0 6 0;
#X connect 2 0 16 0;
#X connect 3 0 9 0;
#X connect 3 0 9 1;
#X connect 4 0 5 0;
#X connect 4 0 14 0;
#X connect 5 0 7 0;
#X connect 6 0 2 0;
#X connect 7 0 3 0;
#X connect 8 0 7 1;
#X connect 9 0 10 0;
#X connect 9 0 10 1;
#X connect 10 0 2 1;
#X connect 14 0 3 0;
#X connect 15 0 0 0;
